# AST/ASF file generated using VICON BodyLanguage
# -----------------------------------------------
:version 1.10
:name VICON
:units
  mass 1.0
  length 0.45
  angle deg
:documentation
   .ast/.asf automatically generated from VICON data using
   VICON BodyBuilder and BodyLanguage model FoxedUp or BRILLIANT.MOD
:root
   order TX TY TZ RX RY RZ
   axis XYZ
   position 0 0 0  
   orientation 0 0 0 
:bonedata
  begin
     id 1 
     name lhipjoint
     direction 0.645893 -0.654526 0.392961 
     length 2.38111 
     axis 0 0 0  XYZ
  end
  begin
     id 2 
     name lfemur
     direction 0.34202 -0.939693 0  
     length 6.6822  
     axis 0 0 20  XYZ
    dof rx ry rz
    limits (-160.0 20.0)
           (-70.0 70.0)
           (-60.0 70.0)
  end
  begin
     id 3 
     name ltibia
     direction 0.34202 -0.939693 0   
     length 6.93904   
     axis 0 0 20   XYZ
    dof rx
    limits (-10.0 170.0)
  end
  begin
     id 4 
     name lfoot
     direction 0.0694967 -0.190941 0.979138   
     length 2.13616   
     axis -90 7.62852e-016 20   XYZ
    dof rx rz
    limits (-45.0 90.0)
           (-70.0 20.0)
  end
  begin
     id 5 
     name ltoes
     direction 1.535e-011 -4.2202e-011 1   
     length 1.07536   
     axis -90 7.62852e-016 20   XYZ
    dof rx
    limits (-90.0 20.0)
  end
  begin
     id 6 
     name rhipjoint
     direction -0.700219 -0.612087 0.367481   
     length 2.54621  
     axis 0 0 0  XYZ 
  end
  begin
     id 7 
     name rfemur
     direction -0.34202 -0.939693 0   
     length 6.55353   
     axis 0 0 -20   XYZ
    dof rx ry rz
    limits (-160.0 20.0)
           (-70.0 70.0)
           (-70.0 60.0)
  end
  begin
     id 8 
     name rtibia
     direction -0.34202 -0.939693 0   
     length 6.8736   
     axis 0 0 -20   XYZ
    dof rx
    limits (-10.0 170.0)
 end
 begin
     id 9 
     name rfoot
     direction -0.0679995 -0.186827 0.980037   
     length 2.1218  
     axis -90 -7.62852e-016 -20   XYZ
    dof rx rz
    limits (-45.0 90.0)
           (-20.0 70.0)
  end
  begin
     id 10 
     name rtoes
     direction -1.53589e-011 -4.21772e-011 1   
     length 1.06864   
     axis -90 -7.62852e-016 -20   XYZ
    dof rx
    limits (-90.0 20.0)
  end
  begin
     id 11 
     name lowerback
     direction -0.0416607 0.996347 -0.0745409   
     length 2.12205   
     axis 0 0 0   XYZ
    dof rx ry rz
    limits (-20.0 45.0)
           (-30.0 30.0)
           (-30.0 30.0)
  end
  begin
     id 12 
     name upperback
     direction -0.000153993 0.999276 -0.0380568   
     length 2.12759   
     axis 0 0 0   XYZ
    dof rx ry rz
    limits (-20.0 45.0)
           (-30.0 30.0)
           (-30.0 30.0)
  end
  begin
     id 13 
     name thorax
     direction 0.0187671 0.999821 -0.00241421   
     length 2.13704   
     axis 0 0 0   XYZ
    dof rx ry rz
    limits (-20.0 45.0)
           (-30.0 30.0)
           (-30.0 30.0)
  end
  begin
     id 14 
     name lowerneck
     direction 0.0268157 0.964865 0.261374   
     length 1.65253   
     axis 0 0 0   XYZ
    dof rx ry rz
    limits (-20.0 45.0)
           (-30.0 30.0)
           (-30.0 30.0)
  end
  begin
     id 15 
     name upperneck
     direction 0.00263774 0.939908 -0.341418   
     length 1.72375   
     axis 0 0 0   XYZ
    dof rx ry rz
    limits (-20.0 45.0)
           (-30.0 30.0)
           (-30.0 30.0)
  end
  begin
     id 16
     name head
     direction -0.00526001 0.989001 -0.147818  
     length 1.74878  
     axis 0 0 0   XYZ
    dof rx ry rz
    limits (-20.0 45.0)
           (-30.0 30.0)
           (-30.0 30.0)
  end
  begin
     id 17 
     name lclavicle
     direction 0.881214 0.461162 -0.103884  
     length 3.25108  
     axis 0 0 0   XYZ
    dof ry rz
    limits (-20.0 10.0)
           (0.0 20.0)
  end
  begin
     id 18 
     name lhumerus
     direction 1 -4.4899e-011 3.38092e-027   
     length 4.87408   
     axis 180 -30 -90   XYZ
    dof rx ry rz
    limits (-60.0 90.0)
           (-90.0 90.0)
           (-90.0 90.0)
  end
  begin
     id 19
     name lradius
     direction 1 -4.48931e-011 9.96288e-027   
     length 2.76729   
     axis 180 -30 -90   XYZ
    dof rx
    limits (-10.0 170.0)
  end
  begin
     id 20
     name lwrist
     direction 1 -4.4896e-011 1.50617e-026   
     length 1.38364   
     axis -9.31234e-015 90 90   XYZ
    dof ry
    limits (-180.0 0.0)
 end
  begin
     id 21 
     name lhand
     direction 1 -4.49038e-011 3.01286e-026   
     length 0.98922   
     axis -1.92217e-014 90 90   XYZ
    dof rx rz
    limits (-90.0 90.0)
           (-45.0 45.0)
  end
  begin
     id 22 
     name lfingers
     direction 1 -4.49051e-011 6.02588e-026   
     length 0.797535   
     axis -3.84436e-014 90 90   XYZ
    dof rx
    limits (0.0 90.0)
  end
  begin
     id 23
     name lthumb
     direction 0.707107 -6.34901e-011 0.707107   
     length 1.14511   
     axis -90 45 2.19363e-014   XYZ
    dof rx rz
    limits (-45.0 45.0)
           (-45.0 45.0)
  end
  begin
     id 24 
     name rclavicle
     direction -0.893894 0.441652 -0.0767889   
     length 3.29361  
     axis 0 0 0   XYZ 
    dof ry rz
    limits (-10.0 20.0)
           (-20.0 0.0)
  end
  begin
     id 25 
     name rhumerus
     direction -1 -4.48945e-011 8.0491e-028  
     length 4.71404   
     axis 180 30 90   XYZ
    dof rx ry rz
    limits (-90.0 60.0)
           (-90.0 90.0)
           (-90.0 90.0)
  end
  begin
     id 26 
     name rradius
     direction -1 -4.48986e-011 9.27795e-027   
     length 2.83468   
     axis 180 30 90   XYZ
    dof rx
    limits (-10.0 170.0)
  end
  begin
     id 27 
     name rwrist
     direction -1 -4.49029e-011 1.5064e-026   
     length 1.41734   
     axis -9.31234e-015 -90 -90   XYZ
    dof ry
    limits (-180.0 0.0)
  end
  begin
     id 28
     name rhand
     direction -1 -4.48857e-011 3.01165e-026   
     length 0.868195   
     axis -1.92217e-014 -90 -90   XYZ
    dof rx rz
    limits (-90.0 90.0)
           (-45.0 45.0)
  end
  begin
     id 29
     name rfingers
     direction -1 -4.49048e-011 6.02585e-026   
     length 0.699961   
     axis -3.84436e-014 -90 -90   XYZ
    dof rx
    limits (0.0 90.0)
  end
  begin
     id 30
     name rthumb
     direction -0.707107 -6.34854e-011 0.707107   
     length 1.00501   
     axis -90 -45 -2.19363e-014   XYZ
    dof rx rz
    limits (-45.0 45.0)
           (-45.0 45.0)
  end
:hierarchy
  begin
    root lhipjoint rhipjoint lowerback
    lhipjoint lfemur
    lfemur ltibia
    ltibia lfoot
    lfoot ltoes
    rhipjoint rfemur
    rfemur rtibia
    rtibia rfoot
    rfoot rtoes
    lowerback upperback
    upperback thorax
    thorax lowerneck lclavicle rclavicle
    lowerneck upperneck
    upperneck head
    lclavicle lhumerus
    lhumerus lradius
    lradius lwrist
    lwrist lhand lthumb
    lhand lfingers
    rclavicle rhumerus
    rhumerus rradius
    rradius rwrist
    rwrist rhand rthumb
    rhand rfingers
  end

#!OML:ASF H:\ManfredObstacles\Project 1\Capture day 2\Session 1\male.ASF
:FULLY-SPECIFIED
:DEGREES
144
root 0.922709 15.7971 29.0586 -171.869 4.78451 176.17
lowerback -3.51037 5.35104 -2.91163
upperback -1.59744 7.90094 -7.14953
thorax 0.94691 4.2038 -5.40625
lowerneck -34.7518 -1.39957 10.6556
upperneck 38.348 -11.2462 0.0264351
head 20.6109 -3.13621 -4.98968
rclavicle 1.94809e-014 7.79236e-014
rhumerus -48.1189 -40.8082 -73.3681
rradius 28.1486
rwrist 35.4927
rhand -1.59061 -7.47142
rfingers 7.12502
rthumb 24.066 -35.9824
lclavicle 1.94809e-014 7.79236e-014
lhumerus -27.6642 -12.2534 82.1965
lradius 21.4241
lwrist -41.6647
lhand 4.76921 7.05564
lfingers 7.12502
lthumb 30.1498 34.6157
rfemur -12.2327 4.70625 22.6615
rtibia 26.954
rfoot -15.3683 -22.1842
rtoes -11.7082
lfemur -16.9749 -7.88926 -24.1243
ltibia 29.1109
lfoot -2.54859 21.9239
ltoes 5.48547
145
root 0.933776 15.7934 29.0508 -171.866 4.87524 176.187
lowerback -3.45203 5.43813 -2.89486
upperback -1.61542 8.02298 -7.22324
thorax 0.918189 4.2694 -5.49349
lowerneck -34.8453 -1.43761 10.7947
upperneck 38.4225 -11.4072 -0.0277795
head 20.6537 -3.17687 -5.08802
rclavicle -5.56597e-015 -9.85972e-014
rhumerus -48.2704 -41.0406 -73.3048
rradius 28.1545
rwrist 35.5029
rhand -1.58046 -7.4374
rfingers 7.12502
rthumb 24.0757 -35.9471
lclavicle -5.56597e-015 -9.85972e-014
lhumerus -27.6183 -12.5686 82.1545
lradius 21.4329
lwrist -41.6227
lhand 4.79763 7.11514
lfingers 7.12502
lthumb 30.1769 34.6702
rfemur -12.1983 4.76152 22.7128
rtibia 26.9324
rfoot -15.3766 -22.1178
rtoes -11.6557
lfemur -17.0262 -7.91768 -24.0686
ltibia 29.3003
lfoot -2.57552 22.0759
ltoes 5.49249
146
root 0.944839 15.7892 29.0429 -171.86 4.96823 176.208
lowerback -3.37966 5.54894 -2.87691
upperback -1.63988 8.17998 -7.32347
thorax 0.882276 4.35433 -5.60943
lowerneck -34.9616 -1.50154 10.9608
upperneck 38.5038 -11.6356 -0.0781018
head 20.699 -3.2369 -5.20681
rclavicle 7.2954e-014 -1.31993e-013
rhumerus -48.4579 -41.354 -73.236
rradius 28.1773
rwrist 35.5198
rhand -1.57128 -7.40665
rfingers 7.12502
rthumb 24.0845 -35.9151
lclavicle 7.2954e-014 -1.31993e-013
lhumerus -27.5575 -13.0417 82.1151
lradius 21.4535
lwrist -41.5033
lhand 4.84889 7.17365
lfingers 7.12502
lthumb 30.2258 34.7198
rfemur -12.1666 4.81943 22.7686
rtibia 26.9105
rfoot -15.3727 -22.0582
rtoes -11.6146
lfemur -17.0956 -7.96181 -24.0085
ltibia 29.5201
lfoot -2.58415 22.2465
ltoes 5.49216
147
root 0.955941 15.7847 29.0349 -171.848 5.05729 176.23
lowerback -3.30181 5.67171 -2.87015
upperback -1.65758 8.35705 -7.44237
thorax 0.854013 4.45075 -5.73812
lowerneck -35.1235 -1.56545 11.1954
upperneck 38.5844 -11.9015 -0.152199
head 20.7435 -3.30201 -5.35861
rclavicle 2.14687e-014 1.11319e-014
rhumerus -48.6353 -41.7337 -73.1872
rradius 28.2115
rwrist 35.5336
rhand -1.55182 -7.3966
rfingers 7.12502
rthumb 24.1032 -35.9026
lclavicle 2.14687e-014 1.11319e-014
lhumerus -27.4595 -13.6166 82.0642
lradius 21.4844
lwrist -41.3331
lhand 4.90587 7.2064
lfingers 7.12502
lthumb 30.2802 34.7426
rfemur -12.1413 4.87206 22.8259
rtibia 26.8912
rfoot -15.3601 -22.0042
rtoes -11.5821
lfemur -17.1886 -8.02047 -23.9471
ltibia 29.7711
lfoot -2.58051 22.4207
ltoes 5.4539
148
root 0.967068 15.78 29.0267 -171.828 5.13384 176.248
lowerback -3.28307 5.72415 -2.86572
upperback -1.64722 8.43307 -7.48604
thorax 0.867986 4.49145 -5.78345
lowerneck -35.2151 -1.56881 11.3255
upperneck 38.6065 -11.9698 -0.225401
head 20.7558 -3.31341 -5.43661
rclavicle -2.94201e-014 -9.06458e-014
rhumerus -48.6469 -41.8714 -73.2092
rradius 28.2118
rwrist 35.547
rhand -1.54142 -7.39463
rfingers 7.12502
rthumb 24.1132 -35.8993
lclavicle -2.94201e-014 -9.06458e-014
lhumerus -27.359 -13.7422 81.9782
lradius 21.4628
lwrist -41.4043
lhand 4.8947 7.13098
lfingers 7.12502
lthumb 30.2695 34.6691
rfemur -12.1254 4.90876 22.8811
rtibia 26.8783
rfoot -15.351 -21.9516
rtoes -11.5485
lfemur -17.3104 -8.10024 -23.8877
ltibia 30.0555
lfoot -2.55494 22.5942
ltoes 5.36397
149
root 0.978256 15.7752 29.0184 -171.801 5.19285 176.261
lowerback -3.29344 5.73505 -2.8404
upperback -1.60599 8.45293 -7.50962
thorax 0.92541 4.50248 -5.81634
lowerneck -35.2726 -1.54693 11.3933
upperneck 38.5843 -11.9553 -0.263515
head 20.7471 -3.30115 -5.46181
rclavicle 2.90226e-014 7.31528e-014
rhumerus -48.5307 -41.9299 -73.3051
rradius 28.1923
rwrist 35.5868
rhand -1.53163 -7.39663
rfingers 7.12502
rthumb 24.1226 -35.9001
lclavicle 2.90226e-014 7.31528e-014
lhumerus -27.2189 -13.7106 81.8735
lradius 21.4385
lwrist -41.4472
lhand 4.87783 7.07052
lfingers 7.12502
lthumb 30.2534 34.6116
rfemur -12.1199 4.9177 22.9332
rtibia 26.8745
rfoot -15.3557 -21.8935
rtoes -11.503
lfemur -17.465 -8.19948 -23.8318
ltibia 30.377
lfoot -2.49208 22.7688
ltoes 5.22652
150
root 0.989384 15.7703 29.01 -171.764 5.23141 176.27
lowerback -3.3543 5.63828 -2.79898
upperback -1.55087 8.3136 -7.42754
thorax 0.997816 4.42635 -5.7495
lowerneck -35.1746 -1.44658 11.2701
upperneck 38.5294 -11.6775 -0.268318
head 20.7198 -3.22191 -5.36774
rclavicle 5.10877e-014 -3.65764e-014
rhumerus -48.2416 -41.6143 -73.4709
rradius 28.1321
rwrist 35.6518
rhand -1.51509 -7.3924
rfingers 7.12502
rthumb 24.1384 -35.8938
lclavicle 5.10877e-014 -3.65764e-014
lhumerus -27.1521 -13.1307 81.7804
lradius 21.3986
lwrist -41.5844
lhand 4.83312 7.03591
lfingers 7.12502
lthumb 30.2108 34.5848
rfemur -12.1261 4.89488 22.9826
rtibia 26.8807
rfoot -15.3906 -21.819
rtoes -11.433
lfemur -17.6573 -8.32643 -23.777
ltibia 30.7418
lfoot -2.39956 22.9477
ltoes 5.05708
151
root 1.00034 15.7654 29.0016 -171.719 5.25385 176.28
lowerback -3.35133 5.54973 -2.71945
upperback -1.54479 8.18243 -7.38271
thorax 0.995498 4.35679 -5.75338
lowerneck -35.037 -1.3695 11.1469
upperneck 38.4951 -11.4592 -0.245123
head 20.6941 -3.16312 -5.27535
rclavicle -5.88403e-014 4.77083e-015
rhumerus -48.0782 -41.3458 -73.5887
rradius 28.0913
rwrist 35.7001
rhand -1.4961 -7.36358
rfingers 7.12502
rthumb 24.1566 -35.8625
lclavicle -5.88403e-014 4.77083e-015
lhumerus -27.148 -12.6706 81.6804
lradius 21.3817
lwrist -41.6576
lhand 4.80336 7.04398
lfingers 7.12502
lthumb 30.1824 34.5981
rfemur -12.1431 4.8531 23.033
rtibia 26.895
rfoot -15.4549 -21.7334
rtoes -11.3329
lfemur -17.8918 -8.47175 -23.7202
ltibia 31.1592
lfoot -2.279 23.1293
ltoes 4.85752
152
root 1.01086 15.7603 28.9929 -171.669 5.2646 176.29
lowerback -3.35043 5.41022 -2.62924
upperback -1.55155 7.97286 -7.28468
thorax 0.96783 4.24432 -5.71264
lowerneck -34.828 -1.24781 10.9427
upperneck 38.4695 -11.1129 -0.222089
head 20.6721 -3.07091 -5.13731
rclavicle -8.88567e-014 3.18055e-015
rhumerus -47.8739 -40.8778 -73.7157
rradius 28.0386
rwrist 35.734
rhand -1.48101 -7.33377
rfingers 7.12502
rthumb 24.1711 -35.8308
lclavicle -8.88567e-014 3.18055e-015
lhumerus -27.2153 -11.9369 81.5831
lradius 21.3585
lwrist -41.8446
lhand 4.75872 7.03795
lfingers 7.12502
lthumb 30.1398 34.5998
rfemur -12.1633 4.80924 23.0837
rtibia 26.9129
rfoot -15.5621 -21.6312
rtoes -11.2071
lfemur -18.1693 -8.63539 -23.6624
ltibia 31.6414
lfoot -2.13723 23.3256
ltoes 4.63325
153
root 1.02087 15.7549 28.9843 -171.616 5.26918 176.314
lowerback -3.3143 5.24369 -2.51641
upperback -1.58855 7.71773 -7.15942
thorax 0.884521 4.10713 -5.66432
lowerneck -34.5523 -1.10432 10.6879
upperneck 38.4594 -10.7071 -0.187538
head 20.6518 -2.96522 -4.97023
rclavicle -6.89783e-014 6.67916e-014
rhumerus -47.6936 -40.2979 -73.8207
rradius 27.9748
rwrist 35.7738
rhand -1.46215 -7.29442
rfingers 7.12502
rthumb 24.1892 -35.789
lclavicle -6.89783e-014 6.67916e-014
lhumerus -27.3581 -11.0595 81.4767
lradius 21.3386
lwrist -42.117
lhand 4.70815 6.99934
lfingers 7.12502
lthumb 30.0916 34.57
rfemur -12.1808 4.78013 23.1472
rtibia 26.9283
rfoot -15.7017 -21.5257
rtoes -11.0694
lfemur -18.4947 -8.80184 -23.5916
ltibia 32.2007
lfoot -1.98218 23.5277
ltoes 4.37168
154
root 1.03027 15.7491 28.9757 -171.562 5.26677 176.356
lowerback -3.23741 5.12127 -2.39016
upperback -1.64859 7.52353 -7.06846
thorax 0.766347 4.00263 -5.66156
lowerneck -34.3407 -0.98869 10.5084
upperneck 38.4732 -10.3989 -0.175274
head 20.6461 -2.88436 -4.85424
rclavicle -2.98177e-015 -6.83819e-014
rhumerus -47.6259 -39.8566 -73.8625
rradius 27.9363
rwrist 35.7986
rhand -1.43988 -7.25141
rfingers 7.12502
rthumb 24.2105 -35.7432
lclavicle -2.98177e-015 -6.83819e-014
lhumerus -27.5059 -10.4295 81.388
lradius 21.3397
lwrist -42.301
lhand 4.67042 6.9596
lfingers 7.12502
lthumb 30.0556 34.5368
rfemur -12.1899 4.76075 23.2285
rtibia 26.9349
rfoot -15.8577 -21.4206
rtoes -10.9382
lfemur -18.8702 -8.95645 -23.5055
ltibia 32.8478
lfoot -1.82444 23.7235
ltoes 4.06966
